<?xml version="1.0" encoding="UTF-8" standalone="no"?>
<svg width="23px" height="24px" viewBox="0 0 23 24" version="1.1" xmlns="http://www.w3.org/2000/svg" xmlns:xlink="http://www.w3.org/1999/xlink">
    <!-- Generator: sketchtool 40.1 (33804) - http://www.bohemiancoding.com/sketch -->
    <title>D2CE4737-CFA9-42BA-BD3E-15F16CB8E32A</title>
    <desc>Created with sketchtool.</desc>
    <defs></defs>
    <g id="Telas" stroke="none" stroke-width="1" fill="none" fill-rule="evenodd">
        <g id="response-screen-negative" transform="translate(-18.000000, -481.000000)" fill="#FFFFFF">
            <g id="icon_roof_white" transform="translate(29.500000, 493.000000) rotate(-180.000000) translate(-29.500000, -493.000000) translate(18.000000, 481.000000)">
                <path d="M21.939194,6.73474492 L21.939194,12.9674384 L21.939194,19.200132 C21.939194,21.1650259 20.3368293,22.7578939 18.3602205,22.7578939 C16.3836117,22.7578939 14.781247,21.1650259 14.781247,19.200132 L14.781247,12.9674384 L14.781247,6.73474492 C14.781279,6.72596918 14.781247,6.71718589 14.781247,6.70839515 L14.781247,0.462549417 L21.939194,0.462549417 L21.939194,6.70839515 C21.939194,6.71718589 21.939162,6.72596918 21.9390979,6.73474492 L21.939194,6.73474492 Z M14.781247,6.73474492 L14.781247,12.9674384 L14.781247,19.200132 C14.781247,21.1650259 13.1788822,22.7578939 11.2022734,22.7578939 C9.22566463,22.7578939 7.62329987,21.1650259 7.62329987,19.200132 L7.62329987,12.9674384 L7.62329987,6.73474492 C7.62333194,6.72596918 7.62329987,6.71718589 7.62329987,6.70839515 L7.62329987,0.462549417 L14.781247,0.462549417 L14.781247,6.70839515 C14.781247,6.71718589 14.7812149,6.72596918 14.7811508,6.73474492 L14.781247,6.73474492 Z M-5.68434189e-14,0.462549417 L-5.68434189e-14,19.200132 C-5.68434189e-14,21.4169133 1.81428277,23.2204433 4.04428071,23.2204433 C5.5953198,23.2204433 6.94502537,22.3477719 7.62329987,21.0705568 C8.30152875,22.3477719 9.65123432,23.2204433 11.2022734,23.2204433 C12.7533125,23.2204433 14.1030181,22.3477719 14.781247,21.0705568 C15.4594758,22.3477719 16.8091814,23.2204433 18.3602205,23.2204433 C20.590264,23.2204433 22.4045012,21.4169133 22.4045012,19.200132 L22.4045012,0.462549417 C22.4045012,0.207124541 22.1961418,4.54747351e-13 21.939194,4.54747351e-13 L0.465307165,4.54747351e-13 C0.208359429,4.54747351e-13 -5.68434189e-14,0.207124541 -5.68434189e-14,0.462549417 Z M7.62329987,6.73474492 L7.62329987,12.9674384 L7.62329987,19.200132 C7.62329987,21.1650259 6.0209351,22.7578939 4.04428071,22.7578939 C2.06767193,22.7578939 0.465307165,21.1650259 0.465307165,19.200132 L0.465307165,12.9674384 L0.465307165,6.73474492 C0.465339237,6.72596918 0.465307165,6.71718589 0.465307165,6.70839515 L0.465307165,0.462549417 L7.62329987,0.462549417 L7.62329987,6.70839515 C7.62329987,6.71718589 7.6232678,6.72596918 7.62320376,6.73474492 L7.62329987,6.73474492 Z M21.4738869,12.9542862 L21.4738869,12.9805907 C21.4738869,14.6872932 20.0770985,16.0758032 18.3602205,16.0758032 C16.6433424,16.0758032 15.2465541,14.6872932 15.2465541,12.9805907 L15.2465541,9.27126088 C15.9889743,10.1610302 17.1091058,10.7287519 18.3602205,10.7287519 C19.6113351,10.7287519 20.7314667,10.1610755 21.4738869,9.27126088 L21.4738869,12.9542862 Z M21.4738869,19.200132 C21.4738869,20.9068346 20.0770985,22.2953445 18.3602205,22.2953445 C16.6433424,22.2953445 15.2465541,20.9068346 15.2465541,19.200132 L15.2465541,15.543411 C15.9889743,16.4331803 17.1091058,17.0009474 18.3602205,17.0009474 C19.6113351,17.0009474 20.7314667,16.4332257 21.4738869,15.543411 L21.4738869,19.200132 Z M11.2022734,22.2953445 C9.48539536,22.2953445 8.08860703,20.9068346 8.08860703,19.200132 L8.08860703,15.543411 C8.83102722,16.4331803 9.95115875,17.0009474 11.2022734,17.0009474 C12.4533424,17.0009474 13.5735196,16.4332257 14.3159398,15.543411 L14.3159398,19.200132 C14.3159398,20.9068346 12.9191515,22.2953445 11.2022734,22.2953445 Z M4.04428071,22.2953445 C2.32740266,22.2953445 0.930614329,20.9068346 0.930614329,19.200132 L0.930614329,15.543411 C1.67303452,16.4331803 2.79321167,17.0009474 4.04428071,17.0009474 C5.29539536,17.0009474 6.41557252,16.4332257 7.15794708,15.543411 L7.15794708,19.200132 C7.15794708,20.9068346 5.76115875,22.2953445 4.04428071,22.2953445 Z M4.04428071,10.7287065 C5.29539536,10.7287065 6.41557252,10.1610302 7.15794708,9.27121553 L7.15794708,12.9805453 C7.15794708,14.6872479 5.76115875,16.0757578 4.04428071,16.0757578 C2.32740266,16.0757578 0.930614329,14.6872479 0.930614329,12.9805453 L0.930614329,9.27121553 C1.67303452,10.1610302 2.79321167,10.7287065 4.04428071,10.7287065 Z M0.930614329,0.925098835 L7.15794708,0.925098835 L7.15794708,6.70839515 C7.15794708,8.41509774 5.76115875,9.80360769 4.04428071,9.80360769 C2.32740266,9.80360769 0.930614329,8.41509774 0.930614329,6.70839515 L0.930614329,0.925098835 Z M14.3159398,6.70839515 C14.3159398,8.41509774 12.9191515,9.80360769 11.2022734,9.80360769 C9.48539536,9.80360769 8.08860703,8.41509774 8.08860703,6.70839515 L8.08860703,0.925098835 L14.3159398,0.925098835 L14.3159398,6.70839515 Z M8.08860703,12.9542862 L8.08860703,9.27126088 C8.83102722,10.1610302 9.95115875,10.7287519 11.2022734,10.7287519 C12.4533424,10.7287519 13.5735196,10.1610755 14.3159398,9.27126088 L14.3159398,12.9805907 C14.3159398,14.6872932 12.9191515,16.0758032 11.2022734,16.0758032 C9.48539536,16.0758032 8.08860703,14.6872932 8.08860703,12.9805907 L8.08860703,12.9542862 Z M21.4738869,6.70839515 C21.4738869,8.41509774 20.0770985,9.80360769 18.3602205,9.80360769 C16.6433424,9.80360769 15.2465541,8.41509774 15.2465541,6.70839515 L15.2465541,0.925098835 L21.4738869,0.925098835 L21.4738869,6.70839515 Z" id="Combined-Shape"></path>
            </g>
        </g>
    </g>
</svg>