<?xml version="1.0" encoding="UTF-8" standalone="no"?>
<svg width="20px" height="15px" viewBox="0 0 20 15" version="1.1" xmlns="http://www.w3.org/2000/svg" xmlns:xlink="http://www.w3.org/1999/xlink">
    <!-- Generator: sketchtool 40.1 (33804) - http://www.bohemiancoding.com/sketch -->
    <title>D5A8C0DF-04AC-4397-95DE-DD34C9B81F7E</title>
    <desc>Created with sketchtool.</desc>
    <defs></defs>
    <g id="Symbols" stroke="none" stroke-width="1" fill="none" fill-rule="evenodd">
        <g id="timeline_ongoing" transform="translate(-216.000000, -10.000000)">
            <g id="escola-cinza" transform="translate(216.000000, 10.000000)">
                <polygon id="Shape" fill="#D6D6D6" points="19.033306 13.7825803 1.01544658 13.7825803 1.01544658 5.55124728 4.74331839 5.55124728 10.0243763 0.368556099 15.3055895 5.55124728 19.033306 5.55124728"></polygon>
                <path d="M11.1936596,1.88543381 C11.2415778,1.7714146 11.3550437,1.69725639 11.4806639,1.69725639 L17.3830661,1.69725639 C17.4892317,1.69725639 17.5881358,1.75053141 17.6451794,1.8383704 L19.8197486,5.19187646 C19.8807142,5.28596517 19.8843644,5.40474788 19.8300778,5.50238063 C19.7754806,5.59974663 19.6711013,5.66045272 19.5576354,5.66045272 L14.8978441,5.66045272 C14.815327,5.66045272 14.73646,5.62828954 14.6782126,5.57112751 L11.2610324,2.21762145 C11.1721081,2.13043029 11.1453919,1.99945301 11.1936596,1.88543381 L11.1936596,1.88543381 Z" id="Shape" fill="#9B9B9B"></path>
                <path d="M8.67463212,1.88543381 C8.6266751,1.77137649 8.51320918,1.69725639 8.38762781,1.69725639 L2.4852256,1.69725639 C2.37906003,1.69725639 2.28015596,1.75053141 2.22311235,1.8383704 L0.0485431117,5.19187646 C-0.01242249,5.28596517 -0.0160726598,5.40474788 0.0382139079,5.50238063 C0.0928499599,5.59974663 0.197190452,5.66049082 0.310656368,5.66049082 L4.97044758,5.66049082 C5.05296472,5.66049082 5.13183169,5.62832765 5.19007908,5.57116562 L8.6072593,2.21765956 C8.69614482,2.13043029 8.72286096,1.99945301 8.67463212,1.88543381 L8.67463212,1.88543381 Z" id="Shape" fill="#9B9B9B"></path>
                <path d="M14.7219862,5.78829437 C14.6508561,5.78829437 14.579726,5.758532 14.5254489,5.69896916 L9.99998263,0.736008837 L5.47455109,5.69896916 C5.36596214,5.81805673 5.19003067,5.81805673 5.08144171,5.69896916 C4.97285276,5.57988159 4.97285276,5.38694066 5.08144171,5.26785309 L9.80344531,0.0893156799 C9.91203426,-0.0297718933 10.0879657,-0.0297718933 10.1965547,0.0893156799 L14.9185583,5.26785309 C15.0271472,5.38694066 15.0271472,5.57988159 14.9185583,5.69896916 C14.8642117,5.75849389 14.7931163,5.78829437 14.7219862,5.78829437 L14.7219862,5.78829437 Z" id="Shape" fill="#9B9B9B"></path>
                <path d="M10.043148,4.35465697 C9.87143473,4.35465697 9.73249529,4.49100747 9.73249529,4.65952115 L9.73249529,5.26924953 L9.11118979,5.26924953 C8.93947648,5.26924953 8.80053704,5.40560004 8.80053704,5.57411372 C8.80053704,5.7426274 8.93947648,5.8789779 9.11118979,5.8789779 L10.043148,5.8789779 C10.2148613,5.8789779 10.3538008,5.7426274 10.3538008,5.57411372 L10.3538008,4.65952115 C10.3538008,4.49100747 10.2148613,4.35465697 10.043148,4.35465697 L10.043148,4.35465697 Z" id="Shape" fill="#9B9B9B"></path>
                <path d="M14.7540693,7.44204294 C14.7540693,7.02110172 14.4063712,6.67988247 13.9774374,6.67988247 C13.5485037,6.67988247 13.2008056,7.02110172 13.2008056,7.44204294 C13.2008056,7.49425093 13.2062808,7.54520136 13.2164547,7.59447504 L13.2008056,7.59447504 L13.2008056,8.81393178 L14.7540693,8.81393178 L14.7540693,7.59447504 L14.7384202,7.59447504 C14.7486329,7.54520136 14.7540693,7.49425093 14.7540693,7.44204294 L14.7540693,7.44204294 Z" id="Shape" fill="#FFFFFF"></path>
                <rect id="Rectangle-path" fill="#FFFFFF" x="5.4157151" y="10.3338083" width="1.55326374" height="1.82918512"></rect>
                <rect id="Rectangle-path" fill="#FFFFFF" x="2.70785755" y="10.3338083" width="1.55326374" height="1.82918512"></rect>
                <rect id="Rectangle-path" fill="#FFFFFF" x="13.2008056" y="10.3338083" width="1.55326374" height="1.82918512"></rect>
                <path d="M4.26112129,7.44204294 C4.26112129,7.02110172 3.9134232,6.67988247 3.48448942,6.67988247 C3.05555564,6.67988247 2.70785755,7.02110172 2.70785755,7.44204294 C2.70785755,7.49425093 2.71333281,7.54520136 2.72350668,7.59447504 L2.70785755,7.59447504 L2.70785755,8.81393178 L4.26112129,8.81393178 L4.26112129,7.59447504 L4.24547216,7.59447504 C4.25564604,7.54520136 4.26112129,7.49425093 4.26112129,7.44204294 L4.26112129,7.44204294 Z" id="Shape" fill="#FFFFFF"></path>
                <path d="M6.96897884,7.44204294 C6.96897884,7.02110172 6.62128075,6.67988247 6.19234697,6.67988247 C5.76341319,6.67988247 5.4157151,7.02110172 5.4157151,7.44204294 C5.4157151,7.49425093 5.42119036,7.54520136 5.43136424,7.59447504 L5.4157151,7.59447504 L5.4157151,8.81393178 L6.96897884,8.81393178 L6.96897884,7.59447504 L6.95332971,7.59447504 C6.96350359,7.54520136 6.96897884,7.49425093 6.96897884,7.44204294 L6.96897884,7.44204294 Z" id="Shape" fill="#FFFFFF"></path>
                <path d="M9.9596597,7.62623037 C8.76057892,7.62623037 7.78509046,6.66891872 7.78509046,5.49218106 C7.78509046,4.31544341 8.76057892,3.35813175 9.9596597,3.35813175 C11.1587405,3.35813175 12.1342289,4.31544341 12.1342289,5.49218106 C12.1342289,6.66891872 11.1587405,7.62623037 9.9596597,7.62623037 L9.9596597,7.62623037 Z M9.9596597,3.96786012 C9.1032289,3.96786012 8.40639596,4.65163239 8.40639596,5.49218106 C8.40639596,6.33272973 9.1032289,7.016502 9.9596597,7.016502 C10.8160905,7.016502 11.5129234,6.33272973 11.5129234,5.49218106 C11.5129234,4.65163239 10.8160905,3.96786012 9.9596597,3.96786012 L9.9596597,3.96786012 Z" id="Shape" fill="#9B9B9B"></path>
                <path d="M11.2022707,8.67293291 L8.7170487,8.67293291 C8.2031514,8.67293291 7.78509046,9.08320389 7.78509046,9.58752547 L7.78509046,13.8556241 C7.78509046,14.0241378 7.9240299,14.1604883 8.09574321,14.1604883 C8.26745652,14.1604883 8.40639596,14.0241378 8.40639596,13.8556241 L8.40639596,10.502118 L9.64050283,10.502118 L9.64050283,13.8556241 L10.2618083,13.8556241 L10.2618083,10.502118 L11.5129234,10.502118 L11.5129234,13.8556241 C11.5129234,14.0241378 11.6518629,14.1604883 11.8235762,14.1604883 C11.9952895,14.1604883 12.1342289,14.0241378 12.1342289,13.8556241 L12.1342289,9.58752547 C12.1342289,9.08320389 11.716168,8.67293291 11.2022707,8.67293291 L11.2022707,8.67293291 Z M11.5129234,9.89238966 L8.40639596,9.89238966 L8.40639596,9.58752547 C8.40639596,9.41931665 8.54564605,9.28266128 8.7170487,9.28266128 L11.2022707,9.28266128 C11.3736733,9.28266128 11.5129234,9.41931665 11.5129234,9.58752547 L11.5129234,9.89238966 L11.5129234,9.89238966 Z" id="Shape" fill="#9B9B9B"></path>
                <path d="M19.5711231,14.2652874 L0.310652748,14.2652874 C0.138939441,14.2652874 0,14.1289369 0,13.9604232 C0,13.7919095 0.138939441,13.655559 0.310652748,13.655559 L19.5711231,13.655559 C19.7428364,13.655559 19.8817759,13.7919095 19.8817759,13.9604232 C19.8817759,14.1289369 19.7428364,14.2652874 19.5711231,14.2652874 L19.5711231,14.2652874 Z" id="Shape" fill="#9B9B9B"></path>
                <rect id="Rectangle-path" fill="#FFFFFF" x="15.9086631" y="10.3338083" width="1.55326374" height="1.82918512"></rect>
                <path d="M17.4619269,7.44204294 C17.4619269,7.02110172 17.1142288,6.67988247 16.685295,6.67988247 C16.2563612,6.67988247 15.9086631,7.02110172 15.9086631,7.44204294 C15.9086631,7.49425093 15.9141384,7.54520136 15.9243122,7.59447504 L15.9086631,7.59447504 L15.9086631,8.81393178 L17.4619269,8.81393178 L17.4619269,7.59447504 L17.4462777,7.59447504 C17.4564516,7.54520136 17.4619269,7.49425093 17.4619269,7.44204294 L17.4619269,7.44204294 Z" id="Shape" fill="#FFFFFF"></path>
            </g>
        </g>
    </g>
</svg>