<?xml version="1.0" encoding="UTF-8" standalone="no"?>
<svg width="18px" height="28px" viewBox="0 0 18 28" version="1.1" xmlns="http://www.w3.org/2000/svg" xmlns:xlink="http://www.w3.org/1999/xlink">
    <!-- Generator: sketchtool 40.1 (33804) - http://www.bohemiancoding.com/sketch -->
    <title>1BA4834B-FFF2-44FA-8766-EE3DF56F95F1</title>
    <desc>Created with sketchtool.</desc>
    <defs></defs>
    <g id="Telas" stroke="none" stroke-width="1" fill="none" fill-rule="evenodd">
        <g id="response-screen-negative" transform="translate(-21.000000, -420.000000)" fill="#FFFFFF">
            <g id="icon_door_white" transform="translate(21.000000, 420.000000)">
                <g id="Group-2">
                    <path d="M0,0.996534824 C0,0.446163838 0.444946289,0 0.993397683,0 L17.0066023,0 C17.5552407,0 18,0.439813137 18,0.996534824 L18,27.0034652 C18,27.5538362 17.5550537,28 17.0066023,28 L0.993397683,28 C0.444759292,28 0,27.5601869 0,27.0034652 L0,0.996534824 Z M14.5,17 C15.3284271,17 16,16.3284271 16,15.5 C16,14.6715729 15.3284271,14 14.5,14 C13.6715729,14 13,14.6715729 13,15.5 C13,16.3284271 13.6715729,17 14.5,17 Z" id="Combined-Shape"></path>
                </g>
            </g>
        </g>
    </g>
</svg>