<?xml version="1.0" encoding="UTF-8" standalone="no"?>
<svg width="32px" height="19px" viewBox="0 0 32 19" version="1.1" xmlns="http://www.w3.org/2000/svg" xmlns:xlink="http://www.w3.org/1999/xlink">
    <!-- Generator: sketchtool 40.1 (33804) - http://www.bohemiancoding.com/sketch -->
    <title>22A6B0EF-49D0-4696-85D3-B9342F3BEBF4</title>
    <desc>Created with sketchtool.</desc>
    <defs></defs>
    <g id="Telas" stroke="none" stroke-width="1" fill="none" fill-rule="evenodd">
        <g id="response-screen-negative" transform="translate(-14.000000, -313.000000)" fill="#FFFFFF">
            <g id="icon_foundation_white" transform="translate(14.000000, 313.000000)">
                <path d="M10.7548164,14.7496452 L4.46564724,14.7496452 C4.20040677,14.7994356 4,15.0263885 4,15.2991736 L4,17.7009908 C4,18.0102334 4.25753746,18.2609773 4.57515844,18.2609773 L10.645348,18.2609773 C10.962969,18.2609773 11.2205065,18.0102334 11.2205065,17.7009908 L11.2205065,15.2991736 C11.2204637,15.0263885 11.0200569,14.7994356 10.7548164,14.7496452 Z" id="Shape-Copy"></path>
                <path d="M10.7548164,2.91469757 L4.46564724,2.91469757 C4.20040677,2.96448804 4,3.19144092 4,3.46422602 L4,5.86604324 C4,6.1752858 4.25753746,6.42602977 4.57515844,6.42602977 L10.645348,6.42602977 C10.962969,6.42602977 11.2205065,6.1752858 11.2205065,5.86604324 L11.2205065,3.46422602 C11.2204637,3.19144092 11.0200569,2.96448804 10.7548164,2.91469757 Z" id="Shape-Copy-2" transform="translate(7.610253, 4.670364) rotate(-90.000000) translate(-7.610253, -4.670364) "></path>
                <path d="M28.4216394,2.75429056 L22.1324702,2.75429056 C21.8672297,2.80408103 21.666823,3.0310339 21.666823,3.303819 L21.666823,5.70563622 C21.666823,6.01487878 21.9243604,6.26562275 22.2419814,6.26562275 L28.312171,6.26562275 C28.629792,6.26562275 28.8873295,6.01487878 28.8873295,5.70563622 L28.8873295,3.303819 C28.8872867,3.0310339 28.6868799,2.80408103 28.4216394,2.75429056 Z" id="Shape-Copy-3" transform="translate(25.277076, 4.509957) rotate(-270.000000) translate(-25.277076, -4.509957) "></path>
                <path d="M28.1075262,14.7321872 C27.6931468,14.7321872 22.3416913,14.7426453 21.9278254,14.7426453 C21.6625849,14.7924358 21.4621781,15.0193887 21.4621781,15.2921738 L21.4621781,17.693991 C21.4621781,18.0032335 21.71963,18.2539775 22.0373366,18.2539775 L28.1075262,18.2539775 C28.4251472,18.2539775 28.6826846,18.0032335 28.6826846,17.693991 L28.6826846,15.2921738 C28.6826418,14.9829312 28.4251472,14.7321872 28.1075262,14.7321872 Z" id="Shape"></path>
                <path d="M31.3691863,9.9322246 L1.47849625,9.90384072 C1.16087528,9.90388239 0.903423408,10.1545847 0.903423408,10.4638272 L0.903423408,12.8656445 C0.903423408,13.174887 1.16087528,13.425631 1.47858184,13.425631 L31.3692291,13.4540149 C31.6868501,13.4540149 31.9443875,13.2033542 31.9443875,12.8940283 L31.9443875,10.4922111 C31.9443447,10.1829269 31.6868073,9.9322246 31.3691863,9.9322246 Z" id="Shape"></path>
            </g>
        </g>
    </g>
</svg>