<?xml version="1.0" encoding="UTF-8" standalone="no"?>
<svg width="25px" height="19px" viewBox="0 0 25 19" version="1.1" xmlns="http://www.w3.org/2000/svg" xmlns:xlink="http://www.w3.org/1999/xlink">
    <!-- Generator: sketchtool 40.1 (33804) - http://www.bohemiancoding.com/sketch -->
    <title>BD2AE263-95CC-4A32-8DC0-611C4A974384</title>
    <desc>Created with sketchtool.</desc>
    <defs></defs>
    <g id="Telas" stroke="none" stroke-width="1" fill="none" fill-rule="evenodd">
        <g id="response-screen-negative" transform="translate(-17.000000, -369.000000)" fill="#FFFFFF">
            <g id="icon_wall_white" transform="translate(17.000000, 369.000000)">
                <path d="M11.0960216,0.0131246842 L5.02578919,0.0131246842 C4.70816821,0.0131246842 4.45063075,0.263868652 4.45063075,0.573111212 L4.45063075,2.97492843 C4.45063075,3.28417099 4.70808262,3.53491496 5.02578919,3.53491496 L11.0959788,3.53491496 C11.4135998,3.53491496 11.6711372,3.28417099 11.6711372,2.97492843 L11.6711372,0.573111212 C11.6711372,0.263868652 11.4136426,0.0131246842 11.0960216,0.0131246842 Z" id="Shape"></path>
                <path d="M20.2976151,0.436322836 C20.2348355,0.193287017 20.0096079,0.0131246842 19.7404731,0.0131246842 L13.6702835,0.0131246842 C13.3526626,0.0131246842 13.0951251,0.263868652 13.0951251,0.573111212 L13.0951251,2.97492843 C13.0951251,3.28417099 13.352577,3.53491496 13.6702835,3.53491496 L19.7404731,3.53491496 C20.0095651,3.53491496 20.2348355,3.35471096 20.2976151,3.11171681 C20.2892702,2.99530294 20.2885854,0.561778151 20.2976151,0.436322836 Z" id="Shape"></path>
                <path d="M15.4848998,14.7496452 L9.19573064,14.7496452 C8.93049017,14.7994356 8.7300834,15.0263885 8.7300834,15.2991736 L8.7300834,17.7009908 C8.7300834,18.0102334 8.98762086,18.2609773 9.30524184,18.2609773 L15.3754314,18.2609773 C15.6930524,18.2609773 15.9505899,18.0102334 15.9505899,17.7009908 L15.9505899,15.2991736 C15.9505471,15.0263885 15.7501403,14.7994356 15.4848998,14.7496452 Z" id="Shape"></path>
                <path d="M6.75481644,14.7496452 L0.465647243,14.7496452 C0.200406767,14.7994356 2.84217094e-14,15.0263885 2.84217094e-14,15.2991736 L2.84217094e-14,17.7009908 C2.84217094e-14,18.0102334 0.25753746,18.2609773 0.575158436,18.2609773 L6.64534804,18.2609773 C6.96296902,18.2609773 7.22050648,18.0102334 7.22050648,17.7009908 L7.22050648,15.2991736 C7.22046369,15.0263885 7.02005692,14.7994356 6.75481644,14.7496452 Z" id="Shape-Copy"></path>
                <path d="M6.75481644,4.91654839 L0.465647243,4.91654839 C0.200406767,4.96633885 2.84217094e-14,5.19329173 2.84217094e-14,5.46607683 L2.84217094e-14,7.86789405 C2.84217094e-14,8.17713661 0.25753746,8.42788058 0.575158436,8.42788058 L6.64534804,8.42788058 C6.96296902,8.42788058 7.22050648,8.17713661 7.22050648,7.86789405 L7.22050648,5.46607683 C7.22046369,5.19329173 7.02005692,4.96633885 6.75481644,4.91654839 Z" id="Shape-Copy-2"></path>
                <path d="M24.2169946,4.91654839 L17.9278254,4.91654839 C17.6625849,4.96633885 17.4621781,5.19329173 17.4621781,5.46607683 L17.4621781,7.86789405 C17.4621781,8.17713661 17.7197156,8.42788058 18.0373366,8.42788058 L24.1075262,8.42788058 C24.4251472,8.42788058 24.6826846,8.17713661 24.6826846,7.86789405 L24.6826846,5.46607683 C24.6826418,5.19329173 24.4822351,4.96633885 24.2169946,4.91654839 Z" id="Shape-Copy-3"></path>
                <path d="M24.1075262,14.7321872 C23.6931468,14.7321872 18.3416913,14.7426453 17.9278254,14.7426453 C17.6625849,14.7924358 17.4621781,15.0193887 17.4621781,15.2921738 L17.4621781,17.693991 C17.4621781,18.0032335 17.71963,18.2539775 18.0373366,18.2539775 L24.1075262,18.2539775 C24.4251472,18.2539775 24.6826846,18.0032335 24.6826846,17.693991 L24.6826846,15.2921738 C24.6826418,14.9829312 24.4251472,14.7321872 24.1075262,14.7321872 Z" id="Shape"></path>
                <path d="M10.9292513,9.82876354 L4.85910451,9.82876354 C4.54148353,9.82876354 4.28394607,10.0794242 4.28394607,10.3887501 L4.28394607,12.7905673 C4.28394607,13.0998098 4.54148353,13.3505538 4.85910451,13.3505538 L10.9292941,13.3505538 C11.2469151,13.3505538 11.504367,13.0998932 11.504367,12.7905673 L11.504367,10.3887501 C11.5044098,10.0794658 11.2469579,9.82876354 10.9292513,9.82876354 Z" id="Shape"></path>
                <path d="M19.5955281,9.82876354 L13.5252957,9.82876354 C13.2076747,9.82880521 12.9502228,10.0795075 12.9502228,10.3887501 L12.9502228,12.7905673 C12.9502228,13.0998098 13.2076747,13.3505538 13.5253813,13.3505538 L19.5955709,13.3505538 C19.9131919,13.3505538 20.1707293,13.0998932 20.1707293,12.7905673 L20.1707293,10.3887501 C20.1706865,10.0794658 19.9131491,9.82876354 19.5955281,9.82876354 Z" id="Shape"></path>
                <path d="M15.2265065,4.90984021 L9.15627409,4.90984021 C8.83865311,4.90984021 8.58111565,5.16050085 8.58111565,5.46982674 L8.58111565,7.87164396 C8.58111565,8.18092818 8.83856753,8.43163049 9.15627409,8.43163049 L15.2264637,8.43163049 C15.5440847,8.43163049 15.8016221,8.18096985 15.8016221,7.87164396 L15.8016221,5.46978508 C15.8016221,5.16054252 15.5441703,4.90984021 15.2265065,4.90984021 Z" id="Shape"></path>
            </g>
        </g>
    </g>
</svg>