<?xml version="1.0" encoding="UTF-8" standalone="no"?>
<svg width="26px" height="17px" viewBox="0 0 26 17" version="1.1" xmlns="http://www.w3.org/2000/svg" xmlns:xlink="http://www.w3.org/1999/xlink">
    <!-- Generator: sketchtool 40.1 (33804) - http://www.bohemiancoding.com/sketch -->
    <title>270EDD8B-2AD5-4C22-A96F-C796676ECA0C</title>
    <desc>Created with sketchtool.</desc>
    <defs></defs>
    <g id="Telas" stroke="none" stroke-width="1" fill="none" fill-rule="evenodd">
        <g id="response-screen-negative" transform="translate(-17.000000, -256.000000)" fill="#FFFFFF">
            <g id="icon_fance_white" transform="translate(17.000000, 256.000000)">
                <path d="M25.3000971,6.69442116 C25.5568117,6.69442116 25.7640009,6.48637159 25.7640009,6.23057117 L25.7640009,4.58262927 C25.7640009,4.3269364 25.5567579,4.11888683 25.3000971,4.11888683 L24.8364622,4.11888683 L24.8364622,2.13281732 C24.8364622,2.02812036 24.8003264,1.92643472 24.7356907,1.84448395 L23.4104972,0.175462847 C23.3225776,0.0646894898 23.1883052,0.000107546949 23.0474725,0.000107546949 C22.9056181,0.000107546949 22.7713457,0.0646894898 22.6833185,0.176161902 L21.3582863,1.84448395 C21.2939195,1.92643472 21.2577837,2.02812036 21.2577837,2.13281732 L21.2577837,4.11888683 L19.7530943,4.11888683 L19.7530943,3.19543495 C19.7530943,2.98071746 19.6063465,2.79460747 19.3975441,2.7442755 L16.7482864,2.10861926 C16.6097121,2.07517215 16.4639322,2.10695228 16.3523523,2.19492568 C16.2406648,2.28311418 16.17533,2.41711768 16.17533,2.55977871 L16.17533,4.11883305 L14.6706944,4.11883305 L14.6706944,2.13276355 C14.6706944,2.02806659 14.6355266,1.92638095 14.5702456,1.84443018 L13.2451058,0.175409074 C13.1578315,0.0646357163 13.0235591,5.37734746e-05 12.8820273,5.37734746e-05 C12.7401729,5.37734746e-05 12.6059005,0.0646357163 12.5189488,0.176108129 L11.1938091,1.8443764 C11.1281517,1.92632718 11.0930376,2.02801282 11.0930376,2.13270977 L11.0930376,4.11877928 L9.58834824,4.11877928 L9.58834824,2.13270977 C9.58834824,2.02801282 9.55323416,1.92632718 9.48789939,1.8443764 L8.16275965,0.1753553 C8.07478625,0.0645819429 7.94115917,1.13686838e-13 7.79865946,1.13686838e-13 C7.6578805,1.13686838e-13 7.52355436,0.0645819429 7.43654888,0.1753553 L6.11146292,1.8443764 C6.04575174,1.92632718 6.01063766,2.02801282 6.01063766,2.13270977 L6.01063766,4.11877928 L4.50589452,4.11877928 L4.50589452,2.19750681 C4.50589452,2.05484578 4.44055975,1.91982059 4.32731281,1.83173964 L3.07933802,0.859784084 C2.87903182,0.702980632 2.58881638,0.738148484 2.43120633,0.936895246 L1.02895543,2.70324634 C0.963620663,2.78541221 0.92813017,2.88682898 0.92813017,2.9917948 L0.92813017,4.11888683 L0.463634897,4.11888683 C0.20692033,4.11888683 4.26325641e-14,4.3269364 4.26325641e-14,4.58262927 L4.26325641e-14,6.23057117 C4.26325641e-14,6.48637159 0.206866556,6.69442116 0.463634897,6.69442116 L0.928183943,6.69442116 L0.928183943,11.5620498 L0.463634897,11.5620498 C0.20692033,11.5620498 4.26325641e-14,11.7699919 4.26325641e-14,12.0258461 L4.26325641e-14,13.6738417 C4.26325641e-14,13.9295884 0.206866556,14.1375842 0.463634897,14.1375842 L0.928183943,14.1375842 L0.928183943,16.5362038 C0.928183943,16.792058 1.13542691,17 1.39214148,17 L4.04236717,17 C4.29806004,17 4.5059483,16.792058 4.5059483,16.5362038 L4.5059483,14.1375842 L6.01063766,14.1375842 L6.01063766,16.411288 C6.01063766,16.5538415 6.07532715,16.6881138 6.18690711,16.7760873 C6.2992399,16.8640607 6.44432073,16.8961096 6.58251856,16.8623937 L9.23274425,16.2267912 C9.44154665,16.1763517 9.58834824,15.9903492 9.58834824,15.775578 L9.58834824,14.1375304 L11.0930376,14.1375304 L11.0930376,16.53615 C11.0930376,16.7920042 11.3011947,16.9999462 11.5569414,16.9999462 L14.2071671,16.9999462 C14.463559,16.9999462 14.670802,16.7920042 14.670802,16.53615 L14.670802,14.1375304 L16.1754375,14.1375304 L16.1754375,16.53615 C16.1754375,16.7920042 16.383272,16.9999462 16.6400404,16.9999462 L19.2892444,16.9999462 C19.5460127,16.9999462 19.7531481,16.7920042 19.7531481,16.53615 L19.7531481,14.1375304 L21.2578375,14.1375304 L21.2578375,16.53615 C21.2578375,16.7920042 21.4657257,16.9999462 21.7224403,16.9999462 L24.3726122,16.9999462 C24.6293806,16.9999462 24.836516,16.7920042 24.836516,16.53615 L24.836516,14.1375304 L25.3001509,14.1375304 C25.5568654,14.1375304 25.7640546,13.9295346 25.7640546,13.673788 L25.7640546,12.0257923 C25.7640546,11.7699381 25.5568117,11.5619961 25.3001509,11.5619961 L24.836516,11.5619961 L24.836516,6.69436739 L25.3000971,6.69436739 L25.3000971,6.69442116 Z M4.50589452,11.5620498 L4.50589452,6.69442116 L6.01058389,6.69442116 L6.01058389,11.5620498 L4.50589452,11.5620498 Z M9.58829446,11.5620498 L9.58829446,6.69442116 L11.0929838,6.69442116 L11.0929838,11.5620498 L9.58829446,11.5620498 Z M14.6707482,11.5620498 L14.6707482,6.69442116 L16.1753838,6.69442116 L16.1753838,11.5620498 L14.6707482,11.5620498 Z M21.2577837,11.5620498 L19.7530943,11.5620498 L19.7530943,6.69442116 L21.2577837,6.69442116 L21.2577837,11.5620498 Z" id="XMLID_332_-Copy"></path>
            </g>
        </g>
    </g>
</svg>