<?xml version="1.0" encoding="UTF-8" standalone="no"?>
<svg width="135px" height="135px" viewBox="0 0 135 135" version="1.1" xmlns="http://www.w3.org/2000/svg" xmlns:xlink="http://www.w3.org/1999/xlink">
    <!-- Generator: sketchtool 40.1 (33804) - http://www.bohemiancoding.com/sketch -->
    <title>F33BAEAD-1857-4325-8648-CB3332FD30DE</title>
    <desc>Created with sketchtool.</desc>
    <defs>
        <polygon id="path-1" points="0 0.00524522293 0 18.7705892 34.5481426 18.7705892 34.5481426 0.00524522293 1.15943673e-20 0.00524522293"></polygon>
        <polygon id="path-3" points="6.9566204e-21 0.0742929936 6.9566204e-21 18.8396369 17.2741312 18.8396369 17.2741312 0.0742929936 0 0.0742929936"></polygon>
        <polygon id="path-5" points="0.165250951 18.9171975 32.9285019 18.9171975 32.9285019 0.151905096 0.165250951 0.151905096"></polygon>
    </defs>
    <g id="Page-1" stroke="none" stroke-width="1" fill="none" fill-rule="evenodd">
        <g id="tutorial-screen-01" transform="translate(-117.000000, -175.000000)">
            <g id="logo_ta_de_pe" transform="translate(117.000000, 175.000000)">
                <g>
                    <path d="M64.5222662,0 L95.4283688,0 C96.6137681,0 97.4850228,0.139299363 98.0407643,0.418585987 C98.5966768,0.698044586 98.9667719,1.13640764 99.1524183,1.73161146 C99.3375513,2.32784713 99.430289,3.11033121 99.430289,4.07803185 C99.430289,5.04693631 99.3375513,5.81978981 99.1524183,6.39693631 C98.9667719,6.9747707 98.651943,7.37426752 98.2074183,7.59800637 C97.540289,7.93352866 96.595289,8.10103185 95.3724183,8.10103185 L84.755327,8.10103185 L84.755327,36.2032166 C84.755327,37.0603376 84.7279506,37.6932038 84.672,38.1028471 C84.6167338,38.5133503 84.4500798,38.988172 84.1722091,39.5276561 C83.8943384,40.067828 83.4027605,40.4492675 82.698673,40.6730064 C81.9947567,40.8960573 81.0675513,41.0080127 79.9196236,41.0080127 C78.7704981,41.0080127 77.8535589,40.8960573 77.1679506,40.6730064 C76.4818289,40.4492675 76.0010304,40.067828 75.7231597,39.5276561 C75.4451179,38.988172 75.2779506,38.5037197 75.2226844,38.0748153 C75.1667338,37.6471146 75.1393574,37.0047898 75.1393574,36.1476688 L75.1393574,8.10103185 L64.4663156,8.10103185 C63.2802319,8.10103185 62.4096616,7.96104459 61.8539202,7.68175796 C61.2980076,7.40229936 60.9272281,6.96514013 60.7422662,6.36873248 C60.5566198,5.77370064 60.4643954,4.99138854 60.4643954,4.0223121 C60.4643954,3.05409554 60.5566198,2.28192994 60.7422662,1.70409554 C60.9272281,1.12694904 61.2427414,0.726076433 61.6872662,0.50233758 C62.3543954,0.167503185 63.2993954,0 64.5222662,0" id="Fill-1" fill="#D97143"></path>
                    <path d="M113.159703,16.3694465 L109.49092,24.0236885 L116.883753,24.0236885 L113.159703,16.3694465 Z M117.662099,2.96076497 L132.670369,34.1361344 C133.300027,35.4030707 133.615369,36.3521981 133.615369,36.9855803 C133.615369,38.3259497 132.539989,39.5371662 130.39111,40.6168223 C129.131452,41.2496885 128.139913,41.5666376 127.417517,41.5666376 C126.695122,41.5666376 126.101738,41.3991344 125.638734,41.0636121 C125.175217,40.7286057 124.841395,40.3751981 124.638468,40.0025293 C124.434342,39.6305484 124.14689,39.0719752 123.776795,38.3259497 L120.885673,32.2920516 L105.489,32.2920516 L102.598049,38.3259497 C102.22727,39.0719752 101.939817,39.6114592 101.736376,39.9462936 C101.532764,40.2818159 101.198943,40.6264529 100.735939,40.9798605 C100.272422,41.3332682 99.6797224,41.5110898 98.9571559,41.5110898 C98.2347605,41.5110898 97.2427072,41.1939688 95.9835627,40.5612745 C93.834,39.518765 92.7593042,38.3259497 92.7593042,36.9855803 C92.7593042,36.3521981 93.0741331,35.4030707 93.7043042,34.1361344 L108.712574,2.90504522 C109.120141,2.0486121 109.740901,1.35951019 110.574684,0.837911465 C111.408297,0.316312739 112.288449,0.0555993631 113.21497,0.0555993631 C115.216357,0.0555993631 116.698106,1.0246758 117.662099,2.96076497 L117.662099,2.96076497 Z" id="Fill-3" fill="#D97143"></path>
                    <path d="M22.5765342,75.1997637 C24.7254125,73.2074389 25.8007928,70.702458 25.8007928,67.6855089 C25.8007928,64.6685599 24.7533023,62.1456936 22.6598612,60.1150185 C20.5657357,58.0857191 18.1102414,57.0700376 15.2950894,57.0700376 L9.95873954,57.0700376 L9.95873954,78.1885089 L15.3503555,78.1885089 C18.0187015,78.1885089 20.4269715,77.1927764 22.5765342,75.1997637 M5.06708555,47.1256108 L15.3503555,47.1811586 C20.7233213,47.1811586 25.447808,49.1282541 29.5248422,53.0195217 C33.601192,56.912165 35.6393669,61.6983879 35.6393669,67.3780185 C35.6393669,73.0585089 33.6470475,77.9284834 29.6641198,81.987942 C25.6799943,86.0479166 20.8531882,88.0780758 15.1837015,88.0780758 L5.01113498,88.0780758 C2.75035551,88.0780758 1.34252281,87.6127127 0.786610266,86.6807828 C0.342085551,85.8989866 0.119480989,84.7070312 0.119480989,83.1050885 L0.119480989,52.0421904 C0.119480989,51.1479229 0.147541825,50.4966554 0.202807985,50.0863242 C0.258758555,49.6771968 0.434309886,49.1927446 0.731344106,48.6341713 C1.24961407,47.6279484 2.69508935,47.1256108 5.06708555,47.1256108" id="Fill-5" fill="#D97143"></path>
                    <path d="M49.0908422,78.2448134 L66.2110323,78.2448134 C67.0631236,78.2448134 67.7023631,78.2730172 68.1290932,78.328565 C68.5544544,78.3841127 69.0460323,78.5619344 69.6017738,78.8591064 C70.602211,79.381221 71.1026863,80.8340618 71.1026863,83.2169408 C71.1026863,85.8249344 70.4165646,87.3512083 69.0460323,87.798686 C68.4151768,88.0217369 67.4523821,88.1335204 66.1557662,88.1335204 L44.1432376,88.1335204 C41.5491502,88.1335204 40.0299297,87.4267051 39.5854049,86.0108389 C39.3628004,85.4151191 39.2515837,84.4653038 39.2515837,83.161393 L39.2515837,52.097807 C39.2515837,50.1981764 39.6031996,48.9044121 40.3078004,48.2147943 C41.0112034,47.5263803 42.345462,47.1812274 44.3098916,47.1812274 L66.2110323,47.1812274 C67.0631236,47.1812274 67.7023631,47.2092592 68.1290932,47.264979 C68.5544544,47.3212146 69.0460323,47.4981764 69.6017738,47.7960363 C70.602211,48.317635 71.1026863,49.7704758 71.1026863,52.1533548 C71.1026863,54.7613484 70.4165646,56.2883102 69.0460323,56.7351 C68.4151768,56.958151 67.4523821,57.0699344 66.1557662,57.0699344 L49.0908422,57.0699344 L49.0908422,62.7127624 L60.0965076,62.7127624 C60.9485989,62.7127624 61.5876673,62.7407943 62.0143973,62.7970299 C62.4399297,62.8527497 62.9315076,63.0297115 63.487249,63.3275713 C64.4876863,63.849858 64.9881616,65.3020108 64.9881616,67.6855777 C64.9881616,70.2927115 64.2840741,71.8196732 62.8760703,72.2664631 C62.2452148,72.4902019 61.2819068,72.6021573 59.9851198,72.6021573 L49.0908422,72.6021573 L49.0908422,78.2448134 Z" id="Fill-7" fill="#D97143"></path>
                    <path d="M59.5969049,112.200718 C60.6710875,111.381948 61.2090342,110.152846 61.2090342,108.513929 C61.2090342,106.875011 60.6710875,105.636279 59.5969049,104.798419 C58.5215247,103.960387 57.4098707,103.541113 56.2614297,103.541113 L49.3138061,103.541113 L49.3138061,113.42982 L56.3173802,113.42982 C57.4290342,113.42982 58.5215247,113.020865 59.5969049,112.200718 M69.5468669,101.920769 C70.510346,103.895897 70.9923422,106.092699 70.9923422,108.513929 C70.9923422,110.935158 70.510346,113.123018 69.5468669,115.078368 C68.5827034,117.033546 67.3413536,118.5894 65.8228175,119.743693 C62.7460494,122.12726 59.5594335,123.319215 56.2614297,123.319215 L49.3138061,123.319215 L49.3138061,129.6324 C49.3138061,130.489693 49.2857452,131.132018 49.2297947,131.559546 C49.1745285,131.988451 48.9982928,132.482018 48.701943,133.040591 C48.1824753,134.045954 46.7375133,134.549152 44.3660304,134.549152 C41.7721141,134.549152 40.2528935,133.86005 39.8083688,132.482018 C39.5857643,131.848464 39.4743764,130.880763 39.4743764,129.576164 L39.4743764,98.568814 C39.4743764,97.7123809 39.5024373,97.0700561 39.5577034,96.6411516 C39.613654,96.213451 39.7892053,95.7193682 40.0862395,95.1607949 C40.6045095,94.1552599 42.0499848,93.6522344 44.4221521,93.6522344 L56.3173802,93.6522344 C59.5779125,93.6522344 62.7460494,94.8450497 65.8228175,97.2279287 C67.3413536,98.3829096 68.5827034,99.9470178 69.5468669,101.920769" id="Fill-9" fill="#D97143"></path>
                    <path d="M84.4431331,124.715889 L101.563323,124.715889 C102.415414,124.715889 103.054654,124.744093 103.481384,124.799641 C103.906745,124.855189 104.398323,125.032838 104.954065,125.330182 C105.954502,125.852297 106.454977,127.305138 106.454977,129.688017 C106.454977,132.29601 105.768856,133.822284 104.398323,134.269762 C103.767468,134.492813 102.804673,134.604596 101.508057,134.604596 L79.4955285,134.604596 C76.9014411,134.604596 75.3822205,133.897781 74.9376958,132.481915 C74.7150913,131.886195 74.6038745,130.93638 74.6038745,129.632469 L74.6038745,98.5688828 C74.6038745,96.6692522 74.9554905,95.3754879 75.6600913,94.6858701 C76.3634943,93.9974561 77.6977529,93.6523032 79.6621825,93.6523032 L101.563323,93.6523032 C102.415414,93.6523032 103.054654,93.680335 103.481384,93.7360548 C103.906745,93.7922904 104.398323,93.9692522 104.954065,94.2671121 C105.954502,94.7887108 106.454977,96.2415516 106.454977,98.6244306 C106.454977,101.232424 105.768856,102.759386 104.398323,103.206176 C103.767468,103.429227 102.804673,103.54101 101.508057,103.54101 L84.4431331,103.54101 L84.4431331,109.183838 L95.4487985,109.183838 C96.3008897,109.183838 96.9399582,109.21187 97.3666882,109.268106 C97.7922205,109.323825 98.2837985,109.500787 98.8395399,109.798647 C99.8399772,110.320934 100.340452,111.773087 100.340452,114.156654 C100.340452,116.763787 99.636365,118.290749 98.2283612,118.737539 C97.5975057,118.961278 96.6341977,119.073233 95.3374106,119.073233 L84.4431331,119.073233 L84.4431331,124.715889 Z" id="Fill-11" fill="#D97143"></path>
                    <path d="M117.237987,125.861308 C117.534337,125.284162 118.062188,124.864888 118.822055,124.604003 C119.581409,124.343805 120.77639,124.212932 122.407511,124.212932 C124.037435,124.212932 125.214622,124.575971 125.937017,125.302735 C126.660097,126.028811 127.021295,127.435047 127.021295,129.520582 C127.021295,131.010569 126.834964,132.118257 126.465553,132.845022 C126.094089,133.571098 125.528766,134.05555 124.770097,134.297175 C124.010059,134.540175 122.833044,134.660213 121.239907,134.660213 C119.646257,134.660213 118.423386,134.269831 117.571295,133.487346 C116.940952,132.854652 116.626295,131.774308 116.626295,130.246659 L116.626295,129.353079 C116.626295,128.496646 116.654184,127.84469 116.710135,127.397213 C116.765572,126.950423 116.940952,126.439143 117.237987,125.861308 M117.460591,115.888162 L117.515857,115.441372 C117.515857,113.840289 117.969279,112.574041 118.877492,111.642111 C119.785534,110.711385 120.77639,110.097092 121.85177,109.798716 C122.925781,109.500856 123.917321,108.998346 124.825363,108.290155 C125.732892,107.58334 126.187511,106.623894 126.187511,105.412678 C126.187511,104.202665 125.844108,103.261792 125.159356,102.591264 C124.473063,101.920735 123.444736,101.585901 122.07369,101.585901 C120.702644,101.585901 119.692797,101.800525 119.04466,102.228225 C118.395325,102.65713 117.99734,103.094289 117.849165,103.541079 L117.682511,104.211608 C117.349203,105.180512 116.960116,105.915703 116.515591,106.418729 C116.070382,106.921066 115.495477,107.172837 114.792245,107.172837 C114.087473,107.172837 113.160952,106.94927 112.013025,106.50248 C109.789203,105.645875 108.677549,104.584276 108.677549,103.318028 C108.677549,102.759283 108.788937,102.191767 109.011371,101.613932 C109.233462,101.036786 109.418424,100.552334 109.567283,100.161092 C109.714774,99.7698497 110.113614,99.0910662 110.762264,98.1221618 C111.41023,97.1537732 112.151789,96.3061108 112.985401,95.5800344 C113.819184,94.8532701 114.995686,94.1827414 116.515591,93.5686204 C118.034127,92.9536395 119.720002,92.6468369 121.573899,92.6468369 C125.50139,92.6468369 128.707169,93.9130854 131.189869,96.4455822 C133.672568,98.9792828 134.914603,101.920735 134.914603,105.273206 C134.914603,106.874977 134.62715,108.355334 134.05293,109.714964 C133.478025,111.075111 132.783006,112.145136 131.968386,112.927448 C130.337093,114.491557 128.817873,115.534754 127.410553,116.056181 L126.520819,116.335639 C126.520819,116.969022 126.49293,117.452786 126.437492,117.787792 C126.382226,118.123315 126.214888,118.486353 125.937017,118.877595 C125.659146,119.268837 125.195458,119.548124 124.547492,119.715627 C123.898842,119.882958 123.037169,119.96671 121.962987,119.96671 C120.887606,119.96671 120.025933,119.874015 119.377968,119.687423 C118.729317,119.501518 118.275211,119.184397 118.016333,118.737608 C117.756257,118.290818 117.599184,117.890633 117.543918,117.536538 C117.487968,117.18313 117.460591,116.634015 117.460591,115.888162" id="Fill-13" fill="#F8B24D"></path>
                    <path d="M110.847884,47.1252669 L81.509424,47.1252669 C80.0767814,47.1252669 78.904557,48.3034643 78.904557,49.743407 L78.904557,63.2724707 C78.904557,64.7124134 80.0767814,65.8906108 81.509424,65.8906108 L110.847884,65.8906108 C112.280527,65.8906108 113.452751,64.7124134 113.452751,63.2724707 L113.452751,49.743407 C113.452751,48.3034643 112.280527,47.1252669 110.847884,47.1252669" id="Fill-15" fill="#F8B24D"></path>
                    <path d="M131.400582,47.1252669 L119.488586,47.1252669 C118.055943,47.1252669 116.883719,48.3034643 116.883719,49.743407 L116.883719,63.2724707 C116.883719,64.7124134 118.055943,65.8906108 119.488586,65.8906108 L131.400582,65.8906108 C132.833224,65.8906108 134.005449,64.7124134 134.005449,63.2724707 L134.005449,49.743407 C134.005449,48.3034643 132.833224,47.1252669 131.400582,47.1252669" id="Fill-17" fill="#F8B24D"></path>
                    <g id="Group-21" transform="translate(0.000000, 0.296312)">
                        <mask id="mask-2" fill="white">
                            <use xlink:href="#path-1"></use>
                        </mask>
                        <g id="Clip-20"></g>
                        <path d="M2.60481559,18.7705892 L31.9432757,18.7705892 C33.3759183,18.7705892 34.5481426,17.5923917 34.5481426,16.152449 L34.5481426,2.62338535 C34.5481426,1.18344268 33.3759183,0.00524522293 31.9432757,0.00524522293 L2.60481559,0.00524522293 C1.172173,0.00524522293 -5.13307985e-05,1.18344268 -5.13307985e-05,2.62338535 L-5.13307985e-05,16.152449 C-5.13307985e-05,17.5923917 1.172173,18.7705892 2.60481559,18.7705892" id="Fill-19" fill="#F8B24D" mask="url(#mask-2)"></path>
                    </g>
                    <path d="M52.6485114,22.5553529 L23.3100513,22.5553529 C21.8774087,22.5553529 20.7051844,23.7335503 20.7051844,25.173493 L20.7051844,38.7025567 C20.7051844,40.1424994 21.8774087,41.3206968 23.3100513,41.3206968 L52.6485114,41.3206968 C54.081154,41.3206968 55.2533783,40.1424994 55.2533783,38.7025567 L55.2533783,25.173493 C55.2533783,23.7335503 54.081154,22.5553529 52.6485114,22.5553529" id="Fill-22" fill="#F8B24D"></path>
                    <g id="Group-26" transform="translate(0.000000, 22.481025)">
                        <mask id="mask-4" fill="white">
                            <use xlink:href="#path-3"></use>
                        </mask>
                        <g id="Clip-25"></g>
                        <path d="M2.60481559,18.8396369 L14.6692643,18.8396369 C16.1019068,18.8396369 17.2741312,17.6614395 17.2741312,16.2214968 L17.2741312,2.69243312 C17.2741312,1.25249045 16.1019068,0.0742929936 14.6692643,0.0742929936 L2.60481559,0.0742929936 C1.172173,0.0742929936 -5.13307985e-05,1.25249045 -5.13307985e-05,2.69243312 L-5.13307985e-05,16.2214968 C-5.13307985e-05,17.6614395 1.172173,18.8396369 2.60481559,18.8396369" id="Fill-24" fill="#F8B24D" mask="url(#mask-4)"></path>
                    </g>
                    <path d="M40.5840627,19.0669013 L52.4960589,19.0669013 C53.9287015,19.0669013 55.1009259,17.8887038 55.1009259,16.4487611 L55.1009259,2.91969745 C55.1009259,1.47975478 53.9287015,0.301557325 52.4960589,0.301557325 L40.5840627,0.301557325 C39.1514202,0.301557325 37.9791958,1.47975478 37.9791958,2.91969745 L37.9791958,16.4487611 C37.9791958,17.8887038 39.1514202,19.0669013 40.5840627,19.0669013" id="Fill-27" fill="#F8B24D"></path>
                    <path d="M30.4947376,93.9333096 L2.94122053,93.9333096 C1.50857795,93.9333096 0.336353612,95.111507 0.336353612,96.5514497 L0.336353612,110.080513 C0.336353612,111.520456 1.50857795,112.698654 2.94122053,112.698654 L30.4947376,112.698654 C31.9273802,112.698654 33.0996046,111.520456 33.0996046,110.080513 L33.0996046,96.5514497 C33.0996046,95.111507 31.9273802,93.9333096 30.4947376,93.9333096" id="Fill-29" fill="#F8B24D"></path>
                    <g id="Group-33" transform="translate(0.171103, 116.035166)">
                        <mask id="mask-6" fill="white">
                            <use xlink:href="#path-5"></use>
                        </mask>
                        <g id="Clip-32"></g>
                        <path d="M30.323635,0.151905096 L2.77011787,0.151905096 C1.33747529,0.151905096 0.165250951,1.33010255 0.165250951,2.77004522 L0.165250951,16.2991089 C0.165250951,17.7390516 1.33747529,18.917249 2.77011787,18.917249 L30.323635,18.917249 C31.7562776,18.917249 32.9285019,17.7390516 32.9285019,16.2991089 L32.9285019,2.77004522 C32.9285019,1.33010255 31.7562776,0.151905096 30.323635,0.151905096" id="Fill-31" fill="#F8B24D" mask="url(#mask-6)"></path>
                    </g>
                    <path d="M111.690548,69.3790108 L100.693779,69.3790108 C99.8706046,69.3790108 99.1969734,70.0559025 99.1969734,70.8834439 L99.1969734,78.1268389 C99.1969734,78.9542083 99.8706046,79.631272 100.693779,79.631272 L111.690548,79.631272 C112.513722,79.631272 113.187354,78.9542083 113.187354,78.1268389 L113.187354,70.8834439 C113.187354,70.0559025 112.513722,69.3790108 111.690548,69.3790108" id="Fill-34" fill="#F8B24D"></path>
                    <path d="M93.5738042,69.3790108 L81.5093555,69.3790108 C80.0767129,69.3790108 78.9044886,70.5572083 78.9044886,71.997151 L78.9044886,85.5262146 C78.9044886,86.9661573 80.0767129,88.1443548 81.5093555,88.1443548 L93.5738042,88.1443548 C95.0064468,88.1443548 96.1786711,86.9661573 96.1786711,85.5262146 L96.1786711,71.997151 C96.1786711,70.5572083 95.0064468,69.3790108 93.5738042,69.3790108" id="Fill-36" fill="#F8B24D"></path>
                    <path d="M131.336846,69.3790108 L119.272397,69.3790108 C117.839755,69.3790108 116.66753,70.5572083 116.66753,71.997151 L116.66753,86.0333675 C116.66753,87.4733102 117.839755,88.6513357 119.272397,88.6513357 L131.336846,88.6513357 C132.769489,88.6513357 133.941713,87.4733102 133.941713,86.0333675 L133.941713,71.997151 C133.941713,70.5572083 132.769489,69.3790108 131.336846,69.3790108" id="Fill-38" fill="#F8B24D"></path>
                    <path d="M111.690548,82.5140121 L100.693779,82.5140121 C99.8706046,82.5140121 99.1969734,83.1909038 99.1969734,84.0184452 L99.1969734,86.8728783 C99.1969734,87.7004197 99.8706046,88.3773115 100.693779,88.3773115 L111.690548,88.3773115 C112.513722,88.3773115 113.187354,87.7004197 113.187354,86.8728783 L113.187354,84.0184452 C113.187354,83.1909038 112.513722,82.5140121 111.690548,82.5140121" id="Fill-40" fill="#D97143"></path>
                    <path d="M132.508643,0.0555993631 L123.727483,0.0555993631 C122.904137,0.0555993631 122.230677,0.732663057 122.230677,1.56003248 L122.230677,4.41446561 C122.230677,5.24183503 122.904137,5.91889873 123.727483,5.91889873 L132.508643,5.91889873 C133.331817,5.91889873 134.005449,5.24183503 134.005449,4.41446561 L134.005449,1.56003248 C134.005449,0.732663057 133.331817,0.0555993631 132.508643,0.0555993631" id="Fill-42" fill="#D97143"></path>
                </g>
            </g>
        </g>
    </g>
</svg>