<?xml version="1.0" encoding="UTF-8" standalone="no"?>
<!DOCTYPE svg PUBLIC "-//W3C//DTD SVG 1.1//EN" "http://www.w3.org/Graphics/SVG/1.1/DTD/svg11.dtd">
<svg width="100%" height="100%" viewBox="0 0 18 14" version="1.1" xmlns="http://www.w3.org/2000/svg" xmlns:xlink="http://www.w3.org/1999/xlink" xml:space="preserve" style="fill-rule:evenodd;clip-rule:evenodd;stroke-linejoin:round;stroke-miterlimit:1.41421;">
    <g transform="matrix(0.036,0,0,0.0360478,0,0)">
        <path d="M200.58,0L200.58,28.488C160.267,43.221 128.675,66.383 105.813,97.965C82.941,129.558 71.512,162.407 71.512,196.512C71.512,203.884 72.675,209.301 75,212.791C76.547,215.116 78.291,216.279 80.233,216.279C82.162,216.279 85.07,214.93 88.954,212.209C101.349,203.302 117.046,198.836 136.047,198.836C158.139,198.836 177.709,207.847 194.767,225.871C211.813,243.894 220.349,265.313 220.349,290.114C220.349,316.093 210.557,338.952 190.988,358.719C171.407,378.485 147.675,388.371 119.769,388.371C87.209,388.371 59.105,374.998 35.465,348.254C11.813,321.51 0,285.662 0,240.698C0,188.373 16.081,141.477 48.256,100C80.419,58.535 131.198,25.198 200.58,0ZM480.231,0L480.231,28.488C439.918,43.221 408.324,66.383 385.464,97.965C362.592,129.558 351.162,162.407 351.162,196.512C351.162,203.884 352.323,209.301 354.649,212.791C356.196,215.116 357.939,216.279 359.881,216.279C361.812,216.279 364.718,214.93 368.601,212.209C380.997,203.302 396.696,198.836 415.695,198.836C437.79,198.836 457.359,207.847 474.417,225.871C491.465,243.895 500,265.314 500,290.115C500,316.094 490.208,338.953 470.639,358.72C451.058,378.486 427.326,388.372 399.417,388.372C366.859,388.372 338.755,374.999 315.116,348.255C291.465,321.509 279.651,285.661 279.651,240.697C279.651,188.372 295.731,141.476 327.905,99.999C360.07,58.535 410.847,25.198 480.231,0Z" style="fill:white;fill-rule:nonzero;"/>
    </g>
</svg>
